<mxfile host="app.diagrams.net" modified="2023-11-08T12:38:38.258Z" agent="Mozilla/5.0 (Windows NT 10.0; Win64; x64) AppleWebKit/537.36 (KHTML, like Gecko) Chrome/119.0.0.0 Safari/537.36" etag="Nac0QEGIztQDy-2xDJ6b" version="22.0.8" type="device">
  <diagram id="cX9Rxq1GDXvq4FwfHjqG" name="Page-1">
    <mxGraphModel dx="3387" dy="941" grid="1" gridSize="10" guides="1" tooltips="1" connect="1" arrows="1" fold="1" page="1" pageScale="1" pageWidth="850" pageHeight="1100" math="0" shadow="0">
      <root>
        <mxCell id="0" />
        <mxCell id="1" parent="0" />
        <object label="" kardinalnost="(0,M)" id="p6OjkSHZk2NeHFK_y6Gc-2">
          <mxCell style="rounded=0;orthogonalLoop=1;jettySize=auto;html=1;exitX=0.5;exitY=1;exitDx=0;exitDy=0;endArrow=block;endFill=1;targetPerimeterSpacing=0;" parent="1" edge="1">
            <mxGeometry relative="1" as="geometry">
              <mxPoint x="169.5" y="330" as="targetPoint" />
              <mxPoint x="169.5" y="200" as="sourcePoint" />
            </mxGeometry>
          </mxCell>
        </object>
        <mxCell id="p6OjkSHZk2NeHFK_y6Gc-15" value="&lt;font style=&quot;font-size: 12px;&quot;&gt;(1,M)&lt;/font&gt;" style="edgeLabel;html=1;align=center;verticalAlign=middle;resizable=0;points=[];fontSize=12;" parent="p6OjkSHZk2NeHFK_y6Gc-2" vertex="1" connectable="0">
          <mxGeometry x="-0.7692" y="3" relative="1" as="geometry">
            <mxPoint x="18" as="offset" />
          </mxGeometry>
        </mxCell>
        <mxCell id="p6OjkSHZk2NeHFK_y6Gc-1" value="&lt;font style=&quot;font-size: 14px;&quot;&gt;Evidencija o izvrsenim lekarskim pregledima&lt;/font&gt;" style="rounded=0;whiteSpace=wrap;html=1;fontSize=14;" parent="1" vertex="1">
          <mxGeometry x="120" y="120" width="130" height="80" as="geometry" />
        </mxCell>
        <mxCell id="dR7-cXVYRjZlP15LV4le-43" style="rounded=0;orthogonalLoop=1;jettySize=auto;html=1;exitX=1;exitY=0.5;exitDx=0;exitDy=0;entryX=0;entryY=0.5;entryDx=0;entryDy=0;endArrow=none;endFill=0;" parent="1" source="p6OjkSHZk2NeHFK_y6Gc-3" target="dR7-cXVYRjZlP15LV4le-42" edge="1">
          <mxGeometry relative="1" as="geometry" />
        </mxCell>
        <mxCell id="p6OjkSHZk2NeHFK_y6Gc-3" value="&lt;font style=&quot;font-size: 14px;&quot;&gt;Stavka evidencije&lt;/font&gt;" style="shape=ext;margin=3;double=1;whiteSpace=wrap;html=1;align=center;rounded=0;" parent="1" vertex="1">
          <mxGeometry x="125" y="330" width="110" height="50" as="geometry" />
        </mxCell>
        <mxCell id="p6OjkSHZk2NeHFK_y6Gc-16" value="redni broj#" style="ellipse;whiteSpace=wrap;html=1;align=center;" parent="1" vertex="1">
          <mxGeometry x="-60" y="340" width="100" height="40" as="geometry" />
        </mxCell>
        <mxCell id="p6OjkSHZk2NeHFK_y6Gc-17" value="" style="endArrow=none;html=1;rounded=0;entryX=0;entryY=0.25;entryDx=0;entryDy=0;exitX=0.94;exitY=0.325;exitDx=0;exitDy=0;exitPerimeter=0;" parent="1" source="p6OjkSHZk2NeHFK_y6Gc-16" target="p6OjkSHZk2NeHFK_y6Gc-3" edge="1">
          <mxGeometry width="50" height="50" relative="1" as="geometry">
            <mxPoint x="30" y="360" as="sourcePoint" />
            <mxPoint x="85" y="308" as="targetPoint" />
          </mxGeometry>
        </mxCell>
        <mxCell id="p6OjkSHZk2NeHFK_y6Gc-18" value="&lt;font style=&quot;font-size: 14px;&quot;&gt;Poslodavac&lt;/font&gt;" style="whiteSpace=wrap;html=1;align=center;" parent="1" vertex="1">
          <mxGeometry x="630" y="150" width="100" height="40" as="geometry" />
        </mxCell>
        <mxCell id="p6OjkSHZk2NeHFK_y6Gc-20" value="" style="edgeStyle=orthogonalEdgeStyle;rounded=0;orthogonalLoop=1;jettySize=auto;html=1;endArrow=none;endFill=0;" parent="1" source="p6OjkSHZk2NeHFK_y6Gc-19" target="p6OjkSHZk2NeHFK_y6Gc-1" edge="1">
          <mxGeometry relative="1" as="geometry" />
        </mxCell>
        <mxCell id="p6OjkSHZk2NeHFK_y6Gc-23" value="&lt;font style=&quot;font-size: 12px;&quot;&gt;(1,1) Overena&lt;/font&gt;" style="edgeLabel;html=1;align=center;verticalAlign=middle;resizable=0;points=[];fontSize=12;" parent="p6OjkSHZk2NeHFK_y6Gc-20" vertex="1" connectable="0">
          <mxGeometry x="0.3385" y="1" relative="1" as="geometry">
            <mxPoint y="-11" as="offset" />
          </mxGeometry>
        </mxCell>
        <mxCell id="p6OjkSHZk2NeHFK_y6Gc-21" style="edgeStyle=orthogonalEdgeStyle;rounded=0;orthogonalLoop=1;jettySize=auto;html=1;exitX=1;exitY=0.5;exitDx=0;exitDy=0;entryX=0;entryY=0.5;entryDx=0;entryDy=0;endArrow=none;endFill=0;" parent="1" source="p6OjkSHZk2NeHFK_y6Gc-19" target="p6OjkSHZk2NeHFK_y6Gc-18" edge="1">
          <mxGeometry relative="1" as="geometry" />
        </mxCell>
        <mxCell id="p6OjkSHZk2NeHFK_y6Gc-24" value="(0,M) Overava" style="edgeLabel;html=1;align=center;verticalAlign=middle;resizable=0;points=[];fontSize=12;" parent="p6OjkSHZk2NeHFK_y6Gc-21" vertex="1" connectable="0">
          <mxGeometry x="-0.0364" y="3" relative="1" as="geometry">
            <mxPoint x="-3" y="-7" as="offset" />
          </mxGeometry>
        </mxCell>
        <mxCell id="p6OjkSHZk2NeHFK_y6Gc-19" value="overavanje evidencije" style="shape=rhombus;perimeter=rhombusPerimeter;whiteSpace=wrap;html=1;align=center;" parent="1" vertex="1">
          <mxGeometry x="370" y="135" width="150" height="70" as="geometry" />
        </mxCell>
        <mxCell id="p6OjkSHZk2NeHFK_y6Gc-25" value="adresa" style="ellipse;whiteSpace=wrap;html=1;align=center;" parent="1" vertex="1">
          <mxGeometry x="500" y="60" width="100" height="40" as="geometry" />
        </mxCell>
        <mxCell id="p6OjkSHZk2NeHFK_y6Gc-26" value="" style="endArrow=none;html=1;rounded=0;entryX=0.16;entryY=0.025;entryDx=0;entryDy=0;exitX=1;exitY=1;exitDx=0;exitDy=0;entryPerimeter=0;" parent="1" source="p6OjkSHZk2NeHFK_y6Gc-25" target="p6OjkSHZk2NeHFK_y6Gc-18" edge="1">
          <mxGeometry width="50" height="50" relative="1" as="geometry">
            <mxPoint x="660" y="290" as="sourcePoint" />
            <mxPoint x="715" y="238" as="targetPoint" />
          </mxGeometry>
        </mxCell>
        <mxCell id="p6OjkSHZk2NeHFK_y6Gc-27" value="PIB#" style="ellipse;whiteSpace=wrap;html=1;align=center;" parent="1" vertex="1">
          <mxGeometry x="720" y="60" width="100" height="40" as="geometry" />
        </mxCell>
        <mxCell id="p6OjkSHZk2NeHFK_y6Gc-28" value="" style="endArrow=none;html=1;rounded=0;entryX=1;entryY=0;entryDx=0;entryDy=0;exitX=0;exitY=1;exitDx=0;exitDy=0;" parent="1" source="p6OjkSHZk2NeHFK_y6Gc-27" target="p6OjkSHZk2NeHFK_y6Gc-18" edge="1">
          <mxGeometry width="50" height="50" relative="1" as="geometry">
            <mxPoint x="620" y="220" as="sourcePoint" />
            <mxPoint x="715" y="213" as="targetPoint" />
          </mxGeometry>
        </mxCell>
        <mxCell id="p6OjkSHZk2NeHFK_y6Gc-31" value="poslovno ime" style="ellipse;whiteSpace=wrap;html=1;align=center;" parent="1" vertex="1">
          <mxGeometry x="620" y="40" width="100" height="40" as="geometry" />
        </mxCell>
        <mxCell id="p6OjkSHZk2NeHFK_y6Gc-32" value="" style="endArrow=none;html=1;rounded=0;entryX=0.63;entryY=0.025;entryDx=0;entryDy=0;exitX=0.5;exitY=1;exitDx=0;exitDy=0;entryPerimeter=0;" parent="1" source="p6OjkSHZk2NeHFK_y6Gc-31" target="p6OjkSHZk2NeHFK_y6Gc-18" edge="1">
          <mxGeometry width="50" height="50" relative="1" as="geometry">
            <mxPoint x="780" y="280" as="sourcePoint" />
            <mxPoint x="875" y="263" as="targetPoint" />
          </mxGeometry>
        </mxCell>
        <mxCell id="p6OjkSHZk2NeHFK_y6Gc-33" value="id#" style="ellipse;whiteSpace=wrap;html=1;align=center;" parent="1" vertex="1">
          <mxGeometry x="150" y="40" width="100" height="40" as="geometry" />
        </mxCell>
        <mxCell id="p6OjkSHZk2NeHFK_y6Gc-34" value="" style="endArrow=none;html=1;rounded=0;entryX=0.383;entryY=-0.017;entryDx=0;entryDy=0;exitX=0.28;exitY=0.95;exitDx=0;exitDy=0;entryPerimeter=0;exitPerimeter=0;" parent="1" source="p6OjkSHZk2NeHFK_y6Gc-33" target="p6OjkSHZk2NeHFK_y6Gc-1" edge="1">
          <mxGeometry width="50" height="50" relative="1" as="geometry">
            <mxPoint x="220" y="279" as="sourcePoint" />
            <mxPoint x="206" y="140" as="targetPoint" />
          </mxGeometry>
        </mxCell>
        <mxCell id="p6OjkSHZk2NeHFK_y6Gc-37" style="edgeStyle=orthogonalEdgeStyle;rounded=0;orthogonalLoop=1;jettySize=auto;html=1;exitX=1;exitY=0.5;exitDx=0;exitDy=0;entryX=0;entryY=0.5;entryDx=0;entryDy=0;endArrow=none;endFill=0;" parent="1" source="p6OjkSHZk2NeHFK_y6Gc-39" target="p6OjkSHZk2NeHFK_y6Gc-1" edge="1">
          <mxGeometry relative="1" as="geometry">
            <mxPoint x="80" y="165" as="targetPoint" />
          </mxGeometry>
        </mxCell>
        <mxCell id="p6OjkSHZk2NeHFK_y6Gc-38" value="(1,1) Overeno od strane" style="edgeLabel;html=1;align=center;verticalAlign=middle;resizable=0;points=[];fontSize=12;" parent="p6OjkSHZk2NeHFK_y6Gc-37" vertex="1" connectable="0">
          <mxGeometry x="-0.0364" y="3" relative="1" as="geometry">
            <mxPoint x="-2" y="-18" as="offset" />
          </mxGeometry>
        </mxCell>
        <mxCell id="p6OjkSHZk2NeHFK_y6Gc-40" style="edgeStyle=orthogonalEdgeStyle;rounded=0;orthogonalLoop=1;jettySize=auto;html=1;exitX=0;exitY=0.5;exitDx=0;exitDy=0;endArrow=none;endFill=0;entryX=1;entryY=0.5;entryDx=0;entryDy=0;" parent="1" source="p6OjkSHZk2NeHFK_y6Gc-39" target="p6OjkSHZk2NeHFK_y6Gc-42" edge="1">
          <mxGeometry relative="1" as="geometry">
            <mxPoint x="-330" y="170" as="targetPoint" />
          </mxGeometry>
        </mxCell>
        <mxCell id="p6OjkSHZk2NeHFK_y6Gc-39" value="Vodjenje evidencije" style="shape=rhombus;perimeter=rhombusPerimeter;whiteSpace=wrap;html=1;align=center;" parent="1" vertex="1">
          <mxGeometry x="-180" y="135" width="150" height="70" as="geometry" />
        </mxCell>
        <mxCell id="p6OjkSHZk2NeHFK_y6Gc-41" value="(0,M) Overava" style="edgeLabel;html=1;align=center;verticalAlign=middle;resizable=0;points=[];fontSize=12;" parent="1" vertex="1" connectable="0">
          <mxGeometry x="-249.99529411764684" y="160" as="geometry">
            <mxPoint x="-6" y="-5" as="offset" />
          </mxGeometry>
        </mxCell>
        <mxCell id="p6OjkSHZk2NeHFK_y6Gc-42" value="&lt;font style=&quot;font-size: 14px;&quot;&gt;Lice za bezbednost&lt;/font&gt;" style="whiteSpace=wrap;html=1;align=center;" parent="1" vertex="1">
          <mxGeometry x="-425" y="150" width="100" height="40" as="geometry" />
        </mxCell>
        <mxCell id="p6OjkSHZk2NeHFK_y6Gc-43" value="ime" style="ellipse;whiteSpace=wrap;html=1;align=center;" parent="1" vertex="1">
          <mxGeometry x="-560" y="59" width="100" height="40" as="geometry" />
        </mxCell>
        <mxCell id="p6OjkSHZk2NeHFK_y6Gc-44" value="" style="endArrow=none;html=1;rounded=0;entryX=0.08;entryY=0.049;entryDx=0;entryDy=0;exitX=1;exitY=1;exitDx=0;exitDy=0;entryPerimeter=0;" parent="1" source="p6OjkSHZk2NeHFK_y6Gc-43" target="p6OjkSHZk2NeHFK_y6Gc-42" edge="1">
          <mxGeometry width="50" height="50" relative="1" as="geometry">
            <mxPoint x="-400" y="289" as="sourcePoint" />
            <mxPoint x="-414" y="150" as="targetPoint" />
          </mxGeometry>
        </mxCell>
        <mxCell id="p6OjkSHZk2NeHFK_y6Gc-45" value="id#" style="ellipse;whiteSpace=wrap;html=1;align=center;" parent="1" vertex="1">
          <mxGeometry x="-340" y="59" width="100" height="40" as="geometry" />
        </mxCell>
        <mxCell id="p6OjkSHZk2NeHFK_y6Gc-46" value="" style="endArrow=none;html=1;rounded=0;entryX=0.845;entryY=0.019;entryDx=0;entryDy=0;exitX=0;exitY=1;exitDx=0;exitDy=0;entryPerimeter=0;" parent="1" source="p6OjkSHZk2NeHFK_y6Gc-45" target="p6OjkSHZk2NeHFK_y6Gc-42" edge="1">
          <mxGeometry width="50" height="50" relative="1" as="geometry">
            <mxPoint x="-440" y="219" as="sourcePoint" />
            <mxPoint x="-330" y="149" as="targetPoint" />
          </mxGeometry>
        </mxCell>
        <mxCell id="p6OjkSHZk2NeHFK_y6Gc-47" value="prezime" style="ellipse;whiteSpace=wrap;html=1;align=center;" parent="1" vertex="1">
          <mxGeometry x="-440" y="39" width="100" height="40" as="geometry" />
        </mxCell>
        <mxCell id="p6OjkSHZk2NeHFK_y6Gc-48" value="" style="endArrow=none;html=1;rounded=0;entryX=0.621;entryY=-0.04;entryDx=0;entryDy=0;exitX=0.65;exitY=1.1;exitDx=0;exitDy=0;exitPerimeter=0;entryPerimeter=0;" parent="1" source="p6OjkSHZk2NeHFK_y6Gc-47" target="p6OjkSHZk2NeHFK_y6Gc-42" edge="1">
          <mxGeometry width="50" height="50" relative="1" as="geometry">
            <mxPoint x="-280" y="279" as="sourcePoint" />
            <mxPoint x="-367" y="150" as="targetPoint" />
          </mxGeometry>
        </mxCell>
        <mxCell id="XjySdd2gi-GwcaV57Ylc-37" style="edgeStyle=orthogonalEdgeStyle;rounded=0;orthogonalLoop=1;jettySize=auto;html=1;exitX=1;exitY=0.5;exitDx=0;exitDy=0;entryX=0;entryY=0.5;entryDx=0;entryDy=0;endArrow=none;endFill=0;" parent="1" source="dR7-cXVYRjZlP15LV4le-10" target="XjySdd2gi-GwcaV57Ylc-36" edge="1">
          <mxGeometry relative="1" as="geometry">
            <mxPoint x="-140" y="550" as="sourcePoint" />
          </mxGeometry>
        </mxCell>
        <mxCell id="XjySdd2gi-GwcaV57Ylc-36" value="izvestaj lekara" style="rhombus;whiteSpace=wrap;html=1;" parent="1" vertex="1">
          <mxGeometry x="80" y="480" width="130" height="80" as="geometry" />
        </mxCell>
        <mxCell id="XjySdd2gi-GwcaV57Ylc-39" style="edgeStyle=orthogonalEdgeStyle;rounded=0;orthogonalLoop=1;jettySize=auto;html=1;exitX=1;exitY=0.5;exitDx=0;exitDy=0;entryX=0.873;entryY=1.04;entryDx=0;entryDy=0;entryPerimeter=0;endArrow=none;endFill=0;" parent="1" source="XjySdd2gi-GwcaV57Ylc-36" target="p6OjkSHZk2NeHFK_y6Gc-3" edge="1">
          <mxGeometry relative="1" as="geometry" />
        </mxCell>
        <mxCell id="XjySdd2gi-GwcaV57Ylc-40" value="(0,1) Pripada" style="edgeLabel;html=1;align=center;verticalAlign=middle;resizable=0;points=[];fontSize=12;" parent="1" vertex="1" connectable="0">
          <mxGeometry x="-9.995294117646836" y="530" as="geometry">
            <mxPoint x="-17" y="-1" as="offset" />
          </mxGeometry>
        </mxCell>
        <mxCell id="XjySdd2gi-GwcaV57Ylc-41" value="(1,1) ima" style="edgeLabel;html=1;align=center;verticalAlign=middle;resizable=0;points=[];fontSize=12;" parent="1" vertex="1" connectable="0">
          <mxGeometry x="250.00470588235316" y="450" as="geometry">
            <mxPoint x="-19" y="-3" as="offset" />
          </mxGeometry>
        </mxCell>
        <mxCell id="dR7-cXVYRjZlP15LV4le-10" value="Prethodni lekarski izvestaj" style="rounded=0;whiteSpace=wrap;html=1;fontSize=14;" parent="1" vertex="1">
          <mxGeometry x="-270" y="511" width="120" height="60" as="geometry" />
        </mxCell>
        <mxCell id="dR7-cXVYRjZlP15LV4le-13" value="id#" style="ellipse;whiteSpace=wrap;html=1;align=center;" parent="1" vertex="1">
          <mxGeometry x="-270" y="421.5" width="100" height="40" as="geometry" />
        </mxCell>
        <mxCell id="dR7-cXVYRjZlP15LV4le-14" value="" style="endArrow=none;html=1;rounded=0;entryX=0.25;entryY=0;entryDx=0;entryDy=0;exitX=0.28;exitY=0.95;exitDx=0;exitDy=0;exitPerimeter=0;" parent="1" source="dR7-cXVYRjZlP15LV4le-13" target="dR7-cXVYRjZlP15LV4le-10" edge="1">
          <mxGeometry width="50" height="50" relative="1" as="geometry">
            <mxPoint x="-200" y="660.5" as="sourcePoint" />
            <mxPoint x="-250" y="500.5" as="targetPoint" />
          </mxGeometry>
        </mxCell>
        <mxCell id="dR7-cXVYRjZlP15LV4le-15" value="Zaposleni" style="rounded=0;whiteSpace=wrap;html=1;fontSize=14;" parent="1" vertex="1">
          <mxGeometry x="-770" y="516" width="120" height="60" as="geometry" />
        </mxCell>
        <mxCell id="dR7-cXVYRjZlP15LV4le-16" value="" style="edgeStyle=orthogonalEdgeStyle;rounded=0;orthogonalLoop=1;jettySize=auto;html=1;endArrow=none;endFill=0;entryX=1;entryY=0.5;entryDx=0;entryDy=0;" parent="1" source="dR7-cXVYRjZlP15LV4le-20" target="dR7-cXVYRjZlP15LV4le-15" edge="1">
          <mxGeometry relative="1" as="geometry">
            <mxPoint x="-615" y="552" as="targetPoint" />
          </mxGeometry>
        </mxCell>
        <mxCell id="dR7-cXVYRjZlP15LV4le-17" value="&lt;font style=&quot;font-size: 12px;&quot;&gt;(1,1) Izvrsen&lt;/font&gt;" style="edgeLabel;html=1;align=center;verticalAlign=middle;resizable=0;points=[];fontSize=12;" parent="dR7-cXVYRjZlP15LV4le-16" vertex="1" connectable="0">
          <mxGeometry x="0.3385" y="1" relative="1" as="geometry">
            <mxPoint x="274" y="-6" as="offset" />
          </mxGeometry>
        </mxCell>
        <mxCell id="dR7-cXVYRjZlP15LV4le-18" style="edgeStyle=orthogonalEdgeStyle;rounded=0;orthogonalLoop=1;jettySize=auto;html=1;exitX=1;exitY=0.5;exitDx=0;exitDy=0;entryX=0;entryY=0.75;entryDx=0;entryDy=0;endArrow=none;endFill=0;" parent="1" source="dR7-cXVYRjZlP15LV4le-20" target="dR7-cXVYRjZlP15LV4le-10" edge="1">
          <mxGeometry relative="1" as="geometry">
            <mxPoint x="-285" y="557" as="targetPoint" />
          </mxGeometry>
        </mxCell>
        <mxCell id="dR7-cXVYRjZlP15LV4le-19" value="(0,M) Uradio" style="edgeLabel;html=1;align=center;verticalAlign=middle;resizable=0;points=[];fontSize=12;" parent="dR7-cXVYRjZlP15LV4le-18" vertex="1" connectable="0">
          <mxGeometry x="-0.0364" y="3" relative="1" as="geometry">
            <mxPoint x="-268" y="-25" as="offset" />
          </mxGeometry>
        </mxCell>
        <mxCell id="dR7-cXVYRjZlP15LV4le-20" value="izvrsavanje lekarskog pregleda" style="shape=rhombus;perimeter=rhombusPerimeter;align=center;whiteSpace=wrap;html=1;spacingTop=0;spacing=2;spacingRight=2;spacingLeft=2;" parent="1" vertex="1">
          <mxGeometry x="-535" y="511" width="145" height="90" as="geometry" />
        </mxCell>
        <mxCell id="dR7-cXVYRjZlP15LV4le-21" value="ime" style="ellipse;whiteSpace=wrap;html=1;align=center;" parent="1" vertex="1">
          <mxGeometry x="-895" y="400" width="100" height="40" as="geometry" />
        </mxCell>
        <mxCell id="dR7-cXVYRjZlP15LV4le-22" value="" style="endArrow=none;html=1;rounded=0;entryX=0.158;entryY=0.017;entryDx=0;entryDy=0;exitX=1;exitY=1;exitDx=0;exitDy=0;entryPerimeter=0;" parent="1" source="dR7-cXVYRjZlP15LV4le-21" target="dR7-cXVYRjZlP15LV4le-15" edge="1">
          <mxGeometry width="50" height="50" relative="1" as="geometry">
            <mxPoint x="-735" y="630" as="sourcePoint" />
            <mxPoint x="-752" y="493" as="targetPoint" />
          </mxGeometry>
        </mxCell>
        <mxCell id="dR7-cXVYRjZlP15LV4le-23" value="jmbg#" style="ellipse;whiteSpace=wrap;html=1;align=center;" parent="1" vertex="1">
          <mxGeometry x="-675" y="400" width="100" height="40" as="geometry" />
        </mxCell>
        <mxCell id="dR7-cXVYRjZlP15LV4le-24" value="" style="endArrow=none;html=1;rounded=0;entryX=0.842;entryY=0.033;entryDx=0;entryDy=0;exitX=0;exitY=1;exitDx=0;exitDy=0;entryPerimeter=0;" parent="1" source="dR7-cXVYRjZlP15LV4le-23" target="dR7-cXVYRjZlP15LV4le-15" edge="1">
          <mxGeometry width="50" height="50" relative="1" as="geometry">
            <mxPoint x="-775" y="560" as="sourcePoint" />
            <mxPoint x="-675" y="492" as="targetPoint" />
          </mxGeometry>
        </mxCell>
        <mxCell id="dR7-cXVYRjZlP15LV4le-25" value="prezime" style="ellipse;whiteSpace=wrap;html=1;align=center;" parent="1" vertex="1">
          <mxGeometry x="-775" y="380" width="100" height="40" as="geometry" />
        </mxCell>
        <mxCell id="dR7-cXVYRjZlP15LV4le-26" value="" style="endArrow=none;html=1;rounded=0;entryX=0.558;entryY=0.05;entryDx=0;entryDy=0;exitX=0.65;exitY=1.1;exitDx=0;exitDy=0;exitPerimeter=0;entryPerimeter=0;" parent="1" source="dR7-cXVYRjZlP15LV4le-25" target="dR7-cXVYRjZlP15LV4le-15" edge="1">
          <mxGeometry width="50" height="50" relative="1" as="geometry">
            <mxPoint x="-615" y="620" as="sourcePoint" />
            <mxPoint x="-698" y="489" as="targetPoint" />
          </mxGeometry>
        </mxCell>
        <mxCell id="dR7-cXVYRjZlP15LV4le-35" value="datum pregleda" style="ellipse;whiteSpace=wrap;html=1;" parent="1" vertex="1">
          <mxGeometry x="-230" y="651" width="120" height="80" as="geometry" />
        </mxCell>
        <mxCell id="dR7-cXVYRjZlP15LV4le-36" style="rounded=0;orthogonalLoop=1;jettySize=auto;html=1;exitX=0.5;exitY=0;exitDx=0;exitDy=0;entryX=0.5;entryY=1;entryDx=0;entryDy=0;endArrow=none;endFill=0;" parent="1" source="dR7-cXVYRjZlP15LV4le-35" target="dR7-cXVYRjZlP15LV4le-10" edge="1">
          <mxGeometry relative="1" as="geometry">
            <mxPoint x="-140" y="576" as="targetPoint" />
          </mxGeometry>
        </mxCell>
        <mxCell id="dR7-cXVYRjZlP15LV4le-40" style="rounded=0;orthogonalLoop=1;jettySize=auto;html=1;exitX=0;exitY=1;exitDx=0;exitDy=0;entryX=0.75;entryY=0;entryDx=0;entryDy=0;endArrow=none;endFill=0;" parent="1" source="dR7-cXVYRjZlP15LV4le-41" target="dR7-cXVYRjZlP15LV4le-10" edge="1">
          <mxGeometry relative="1" as="geometry" />
        </mxCell>
        <mxCell id="dR7-cXVYRjZlP15LV4le-41" value="sposobnost bavljenja poslom" style="ellipse;whiteSpace=wrap;html=1;" parent="1" vertex="1">
          <mxGeometry x="-150" y="401" width="120" height="80" as="geometry" />
        </mxCell>
        <mxCell id="dR7-cXVYRjZlP15LV4le-42" value="datum sledeceg pregleda" style="ellipse;whiteSpace=wrap;html=1;" parent="1" vertex="1">
          <mxGeometry x="320" y="330" width="100" height="50" as="geometry" />
        </mxCell>
        <mxCell id="dR7-cXVYRjZlP15LV4le-44" style="rounded=0;orthogonalLoop=1;jettySize=auto;html=1;exitX=1;exitY=1;exitDx=0;exitDy=0;entryX=0;entryY=0.5;entryDx=0;entryDy=0;endArrow=none;endFill=0;" parent="1" source="p6OjkSHZk2NeHFK_y6Gc-3" target="dR7-cXVYRjZlP15LV4le-45" edge="1">
          <mxGeometry relative="1" as="geometry">
            <mxPoint x="270" y="405" as="sourcePoint" />
          </mxGeometry>
        </mxCell>
        <mxCell id="dR7-cXVYRjZlP15LV4le-45" value="preduzete mere" style="ellipse;whiteSpace=wrap;html=1;" parent="1" vertex="1">
          <mxGeometry x="340" y="401" width="100" height="50" as="geometry" />
        </mxCell>
      </root>
    </mxGraphModel>
  </diagram>
</mxfile>
